<svg width="330" height="300" viewBox="0 0 330 300" fill="none" xmlns="http://www.w3.org/2000/svg">
<path fill-rule="evenodd" clip-rule="evenodd" d="M138 1.71393C118.144 5.32393 98.583 13.2489 81.318 24.6779C75.367 28.6169 71.113 30.7559 69.228 30.7559C63.866 30.7559 50.574 34.7079 42.5 38.7019C16.034 51.7959 0 78.0359 0 108.256C0 124.469 3.839 138.029 12.058 150.844C14.214 154.206 15 156.65 15 159.994C15 167.482 18.671 186.656 22.044 196.786C29.834 220.18 40.814 237.748 58.921 255.789C80.801 277.588 103.516 290.11 133.5 296.902C147.614 300.099 174.891 300.59 190.506 297.928C211.534 294.343 230.624 286.751 249 274.663C261.262 266.597 281.3 246.667 289.374 234.508C303.773 212.823 312.905 187.156 314.697 163.331C315.232 156.218 315.817 154.362 319.606 147.756C326.834 135.151 329.272 126.386 329.783 111.164C330.151 100.188 329.883 96.7139 328.121 89.6639C322.515 67.2299 307.838 48.8369 287.5 38.7609C279.319 34.7079 266.068 30.7559 260.659 30.7559C258.653 30.7559 254.868 28.8929 249.388 25.2089C233.618 14.6079 215.802 6.99193 196.5 2.60193C183.101 -0.446066 152.437 -0.912066 138 1.71393ZM93.5 48.4399C109.563 52.4189 125.523 65.5789 132.785 80.8329C137.81 91.3859 139.337 97.9639 139.269 108.756C139.163 125.696 133.319 139.453 120.943 151.894C108.769 164.133 94.226 170.133 77 170.025C60.06 169.919 46.303 164.075 33.862 151.699C21.623 139.525 15.623 124.982 15.731 107.756C15.837 90.8279 21.7 77.0079 33.98 64.7459C50.271 48.4769 70.868 42.8339 93.5 48.4399ZM268.5 48.4399C284.563 52.4189 300.523 65.5789 307.785 80.8329C312.81 91.3859 314.337 97.9639 314.269 108.756C314.163 125.696 308.319 139.453 295.943 151.894C283.769 164.133 269.226 170.133 252 170.025C235.06 169.919 221.303 164.075 208.862 151.699C196.623 139.525 190.623 124.982 190.731 107.756C190.837 90.8279 196.7 77.0079 208.98 64.7459C225.271 48.4769 245.868 42.8339 268.5 48.4399ZM70.217 96.3169C65.273 99.7789 63.258 109.824 66.561 114.539C70.023 119.483 80.068 121.498 84.783 118.195C89.727 114.733 91.742 104.688 88.439 99.9729C84.977 95.0289 74.932 93.0139 70.217 96.3169ZM249.217 96.3169C244.273 99.7789 242.258 109.824 245.561 114.539C249.023 119.483 259.068 121.498 263.783 118.195C268.727 114.733 270.742 104.688 267.439 99.9729C263.977 95.0289 253.932 93.0139 249.217 96.3169ZM198 217.256V224.756H165H132V217.256V209.756H165H198V217.256Z" fill="black"/>
</svg>
