<?xml version="1.0" standalone="no"?>
<!DOCTYPE svg PUBLIC "-//W3C//DTD SVG 20010904//EN"
 "http://www.w3.org/TR/2001/REC-SVG-20010904/DTD/svg10.dtd">
<svg version="1.0" xmlns="http://www.w3.org/2000/svg"
 width="1614.000000pt" height="836.000000pt" viewBox="0 0 1614.000000 836.000000"
 preserveAspectRatio="xMidYMid meet">

<g transform="translate(0.000000,836.000000) scale(0.100000,-0.100000)"
fill="#cc0000" stroke="none">
<path d="M127 8108 c71 -139 707 -1386 1413 -2771 706 -1385 1287 -2514 1291
-2510 14 16 899 1752 899 1765 -1 7 -430 857 -954 1888 l-954 1875 -912 3
-912 2 129 -252z"/>
<path d="M4976 5104 c-911 -1791 -1656 -3262 -1654 -3268 8 -32 904 -1784 909
-1778 7 8 4205 8260 4215 8285 6 16 -61 17 -904 17 l-909 0 -1657 -3256z"/>
<path d="M8315 6020 c-654 -1286 -1194 -2350 -1199 -2363 -8 -21 56 -148 450
-900 252 -482 461 -876 464 -876 6 0 2370 4644 2383 4681 7 19 -71 180 -441
908 -248 486 -454 886 -459 887 -4 1 -543 -1050 -1198 -2337z"/>
<path d="M14172 8068 c-540 -1056 -1762 -3468 -1762 -3477 0 -12 886 -1750
899 -1764 4 -4 585 1125 1291 2510 706 1385 1342 2632 1413 2771 l129 252
-910 0 -910 0 -150 -292z"/>
<path d="M10802 5389 c-343 -666 -792 -1549 -792 -1559 0 -33 1873 -3765 1893
-3773 12 -4 137 237 741 1431 l179 354 -78 161 c-83 171 -1758 3467 -1805
3551 l-27 48 -111 -213z"/>
<path d="M5466 682 c-8 -25 226 -583 252 -600 15 -10 26 -11 39 -3 23 12 256
563 251 595 -2 17 -10 21 -38 21 l-34 0 -92 -219 c-50 -121 -96 -226 -100
-234 -7 -10 -20 13 -47 79 -21 52 -66 158 -99 236 l-60 143 -33 0 c-23 0 -35
-5 -39 -18z"/>
<path d="M6557 694 c-4 -4 -7 -141 -7 -305 0 -294 0 -298 21 -310 16 -8 28 -8
45 0 l24 10 2 227 3 227 74 -89 c40 -49 79 -93 87 -97 27 -15 52 4 126 93 l73
89 5 -222 c3 -122 7 -223 8 -224 15 -16 45 -22 62 -13 20 11 20 19 18 313 l-3
302 -31 3 c-29 3 -39 -6 -130 -117 -55 -66 -103 -119 -108 -118 -4 2 -52 54
-105 117 -79 94 -102 116 -127 118 -16 2 -33 0 -37 -4z"/>
<path d="M7647 693 c-4 -3 -7 -13 -7 -21 0 -13 222 -554 239 -581 10 -15 58
-18 70 -5 17 20 242 577 239 592 -4 21 -60 29 -75 10 -5 -7 -47 -103 -93 -213
-45 -110 -88 -210 -94 -223 l-12 -23 -11 23 c-6 13 -48 113 -93 223 -46 110
-87 206 -93 213 -10 13 -59 17 -70 5z"/>
<path d="M9455 682 c-110 -52 -137 -182 -52 -246 18 -13 91 -48 162 -77 134
-55 175 -83 175 -119 0 -91 -135 -118 -278 -55 -52 23 -67 26 -87 17 -104 -48
156 -152 302 -122 97 21 164 104 149 186 -12 59 -59 94 -207 152 -166 66 -202
101 -169 163 27 49 97 60 231 33 73 -15 82 -15 96 -1 44 43 -31 79 -177 84
-88 3 -112 1 -145 -15z"/>
<path d="M10372 688 c-15 -15 -17 -415 -2 -467 11 -39 60 -95 103 -117 119
-63 295 -17 346 90 19 39 21 60 21 262 0 120 -4 225 -9 232 -5 8 -22 12 -42
10 l-34 -3 -5 -236 c-5 -219 -7 -239 -25 -259 -44 -49 -136 -65 -202 -34 -65
31 -67 42 -73 299 l-5 230 -30 3 c-17 2 -36 -3 -43 -10z"/>
<path d="M8742 168 c-20 -20 -15 -76 7 -88 35 -18 71 6 71 47 0 42 -50 69 -78
41z"/>
</g>
</svg>
