<?xml version="1.0" standalone="no"?>
<!DOCTYPE svg PUBLIC "-//W3C//DTD SVG 20010904//EN"
 "http://www.w3.org/TR/2001/REC-SVG-20010904/DTD/svg10.dtd">
<svg version="1.0" xmlns="http://www.w3.org/2000/svg"
 width="33" height="33" viewBox="0 0 477.000000 477.000000" preserveAspectRatio="xMidYMid meet" style="fill:#4a2000;">

<g transform="translate(0.000000,477.000000) scale(0.100000,-0.100000)"
 stroke="none">
<path d="M2803 4718 c-46 -49 -98 -136 -143 -240 -92 -212 -199 -373 -375
-568 -143 -158 -160 -190 -100 -190 66 0 208 81 323 185 34 31 62 53 62 48 1
-57 25 -220 45 -300 72 -302 229 -555 448 -728 l38 -30 -243 -1 c-186 0 -265
-4 -336 -17 -51 -10 -96 -15 -101 -13 -4 3 -16 27 -26 53 -66 175 -209 468
-287 587 -36 54 -38 61 -27 88 10 25 10 31 -2 39 -34 21 -71 6 -229 -94 -154
-97 -373 -207 -411 -207 -20 0 67 185 132 282 67 98 144 182 274 297 69 62
125 118 125 126 0 41 -129 21 -252 -41 -190 -95 -364 -269 -463 -464 -51 -102
-65 -161 -65 -281 0 -106 0 -108 30 -137 16 -16 42 -32 57 -35 128 -24 451
135 637 313 l84 81 112 -336 c61 -186 110 -338 108 -340 -2 -1 -28 -15 -58
-30 -238 -119 -380 -293 -443 -543 -31 -127 -31 -380 1 -541 47 -232 123 -444
258 -716 142 -288 369 -634 525 -799 42 -45 84 -96 93 -114 14 -27 22 -33 44
-30 23 3 30 11 45 56 21 65 62 307 83 497 22 199 29 588 15 770 -28 348 -110
746 -240 1162 -28 89 -51 164 -51 167 0 7 163 43 250 55 128 19 346 31 570 32
118 1 226 4 240 8 53 15 35 37 -79 96 -235 122 -396 293 -517 549 -97 205
-142 396 -151 636 -6 190 8 319 59 509 17 64 33 133 36 154 4 36 4 37 -30 37
-25 0 -42 -8 -65 -32z m-511 -2164 c67 -233 183 -734 217 -939 53 -310 73
-626 69 -1050 l-3 -300 -92 167 c-392 705 -570 1221 -549 1588 10 185 61 320
161 429 59 63 162 142 179 137 6 -1 14 -16 18 -32z"/>
</g>
</svg>
