<svg width="300" height="300" viewBox="0 0 200 200" fill="none" xmlns="http://www.w3.org/2000/svg" style="fill:#000;">
<path fill-rule="evenodd" clip-rule="evenodd" d="M0 100V200H100H200V100V0H100H0V100ZM118.182 12.3436C118.182 12.5327 117.459 15.5189 116.576 18.98C114.451 27.3087 114.037 30.9029 114.289 38.8451C114.516 45.992 115.168 49.7745 117.293 56.2778C121.598 69.4527 129.817 79.2825 141.25 84.9335C143.837 86.212 144.501 86.92 143.623 87.4633C143.415 87.5916 137.647 87.8367 130.804 88.008C123.501 88.1909 116.487 88.5596 113.818 88.9004C109.217 89.4884 102.957 90.7782 102.452 91.2426C102.301 91.3815 102.597 92.7135 103.109 94.2022C107.454 106.823 111.592 125.145 113.166 138.727C113.852 144.655 113.732 163.085 112.958 170.364C112.176 177.729 111.113 184.71 110.172 188.675C109.184 192.835 108.423 193.737 107.687 191.625C107.476 191.02 106.023 189.179 104.458 187.535C101.093 183.999 97.6073 179.403 93.3665 172.909C82.1171 155.683 75.116 138.535 73.4716 124.179C71.5076 107.037 77.9909 93.9535 91.5684 87.6593C92.6196 87.1716 93.4229 86.5989 93.3531 86.3865C93.2836 86.1738 91.2858 80.0829 88.9138 72.8509L84.6015 59.7015L81.4585 62.8509C79.7298 64.5829 77.0011 66.9393 75.3949 68.0873C69.9495 71.9785 61.9153 75.5789 58.3364 75.7316C56.4207 75.8135 56.2411 75.7447 55.0909 74.4898C53.5702 72.8313 53.1887 70.6887 53.76 67.0138C55.3171 56.9989 63.8215 46.0931 74 41.0593C79.392 38.3927 83.6495 37.788 82.1331 39.9044C81.86 40.2858 79.6971 42.296 77.3265 44.3724C72.3535 48.7276 68.2564 53.468 65.5782 57.9644C63.732 61.0633 61.5222 66.3709 61.9145 66.7633C62.4455 67.2938 71.6069 62.9382 77.9676 59.1305C81.7855 56.8455 85.2782 54.8676 85.7291 54.7356C86.732 54.4418 87.148 55.2375 86.5633 56.3305C86.2207 56.9705 86.4946 57.632 88.4196 60.8135C91.0462 65.1545 95.5193 74.3222 98.0142 80.4789C99.556 84.2844 99.8422 84.7553 100.514 84.5924C105.876 83.2927 108.078 83.1004 117.643 83.0956L127.467 83.0909L125.461 81.5709C114.853 73.5331 107.74 58.7782 107.006 43.2909C106.803 38.9916 106.763 38.808 106.214 39.6455C102.929 44.6593 96.132 50.108 91.9091 51.1135C91.0873 51.3091 90.9091 51.2291 90.9091 50.6655C90.9091 49.8171 91.7193 48.6822 95.5775 44.1258C99.588 39.3902 101.784 36.036 105.959 28.2713C107.867 24.7207 110.085 20.8753 110.887 19.7258C111.688 18.5767 112.856 16.9 113.482 16C115.139 13.6189 116.775 12 117.526 12C117.887 12 118.182 12.1545 118.182 12.3436ZM92.3135 95.6196C84.6687 100.638 81.0476 107.789 80.9815 118C80.9015 130.295 85.4331 144.834 95.6585 165.091C99.5862 172.871 106.228 184.939 106.966 185.635C107.468 186.109 107.123 154.887 106.552 148.182C105.417 134.856 101.845 116.649 96.7247 98.0909C96.076 95.7411 95.4356 93.8182 95.3015 93.8182C95.1673 93.8182 93.8225 94.6287 92.3135 95.6196Z"/>
</svg>
