<?xml version="1.0" standalone="no"?>
<!DOCTYPE svg PUBLIC "-//W3C//DTD SVG 20010904//EN"
 "http://www.w3.org/TR/2001/REC-SVG-20010904/DTD/svg10.dtd">
<svg version="1.0" xmlns="http://www.w3.org/2000/svg"
 width="1614.000000pt" height="836.000000pt" viewBox="0 0 1614.000000 836.000000"
 preserveAspectRatio="xMidYMid meet">

<g transform="translate(0.000000,836.000000) scale(0.100000,-0.100000)"
fill="#000000" stroke="none">
<path d="M127 8108 c71 -139 707 -1386 1413 -2771 706 -1385 1287 -2514 1291
-2510 14 16 899 1752 899 1765 -1 7 -430 857 -954 1888 l-954 1875 -912 3
-912 2 129 -252z"/>
<path d="M4976 5104 c-911 -1791 -1656 -3262 -1654 -3268 8 -32 904 -1784 909
-1778 7 8 4205 8260 4215 8285 6 16 -61 17 -904 17 l-909 0 -1657 -3256z"/>
<path d="M8315 6020 c-654 -1286 -1194 -2350 -1199 -2363 -8 -21 56 -148 450
-900 252 -482 461 -876 464 -876 6 0 2370 4644 2383 4681 7 19 -71 180 -441
908 -248 486 -454 886 -459 887 -4 1 -543 -1050 -1198 -2337z"/>
<path d="M14172 8068 c-540 -1056 -1762 -3468 -1762 -3477 0 -12 886 -1750
899 -1764 4 -4 585 1125 1291 2510 706 1385 1342 2632 1413 2771 l129 252
-910 0 -910 0 -150 -292z"/>
<path d="M10802 5389 c-343 -666 -792 -1549 -792 -1559 0 -33 1873 -3765 1893
-3773 12 -4 137 237 741 1431 l179 354 -78 161 c-83 171 -1758 3467 -1805
3551 l-27 48 -111 -213z"/>
</g>
</svg>
