<?xml version="1.0" standalone="no"?>
<!DOCTYPE svg PUBLIC "-//W3C//DTD SVG 20010904//EN"
 "http://www.w3.org/TR/2001/REC-SVG-20010904/DTD/svg10.dtd">
<svg version="1.0" xmlns="http://www.w3.org/2000/svg"
 width="760.000000pt" height="392.000000pt" viewBox="0 0 760.000000 392.000000"
 preserveAspectRatio="xMidYMid meet">
<metadata>
Created by potrace 1.16, written by Peter Selinger 2001-2019
</metadata>
<g transform="translate(0.000000,392.000000) scale(0.100000,-0.100000)"
fill="#000000" stroke="none">
<path d="M88 3748 c49 -95 347 -679 662 -1298 315 -619 576 -1128 579 -1132 3
-3 102 181 218 410 l213 416 -144 286 c-80 157 -282 555 -450 885 l-305 600
-431 3 -431 2 89 -172z"/>
<path d="M2644 2978 c-263 -518 -615 -1209 -780 -1535 l-301 -592 209 -413
c116 -227 213 -416 217 -420 3 -4 256 485 561 1085 305 600 752 1479 992 1952
241 473 438 861 438 863 0 1 -193 2 -428 2 l-428 0 -480 -942z"/>
<path d="M4222 3422 c-138 -273 -392 -771 -562 -1107 -170 -335 -310 -614
-310 -619 0 -9 418 -807 428 -818 4 -4 125 226 269 510 145 284 398 782 562
1105 l299 588 -210 412 c-115 227 -212 415 -216 419 -4 4 -121 -217 -260 -490z"/>
<path d="M6504 3453 c-131 -258 -334 -657 -451 -888 l-213 -420 99 -195 c55
-107 152 -296 215 -419 l114 -224 42 84 c78 155 1081 2121 1186 2327 l105 202
-430 0 -430 0 -237 -467z"/>
<path d="M4923 2204 l-212 -416 445 -890 c245 -490 449 -887 454 -882 4 5 102
195 218 422 l210 414 -70 141 c-112 226 -819 1611 -827 1619 -3 4 -101 -180
-218 -408z"/>
<path d="M2510 290 c0 -6 28 -71 61 -145 42 -93 67 -135 78 -135 11 0 37 45
83 142 36 79 65 145 63 147 -14 13 -38 -22 -85 -128 -30 -66 -57 -121 -60
-121 -3 0 -30 56 -60 125 -30 69 -60 125 -67 125 -7 0 -13 -5 -13 -10z"/>
<path d="M3017 293 c-4 -3 -7 -69 -7 -145 0 -115 2 -138 15 -138 12 0 15 23
17 121 l3 121 69 -121 c37 -66 71 -121 75 -121 4 0 38 54 75 120 38 66 69 120
70 120 0 0 -1 -54 -2 -120 -3 -104 -2 -120 12 -120 14 0 16 19 16 145 0 119
-3 145 -14 145 -8 0 -45 -54 -83 -120 -37 -66 -70 -120 -73 -120 -3 0 -36 54
-73 120 -62 110 -82 132 -100 113z"/>
<path d="M3581 293 c0 -4 28 -69 63 -143 45 -99 67 -135 80 -135 12 0 35 37
81 135 36 74 65 138 65 143 0 4 -6 7 -13 7 -8 0 -40 -57 -74 -130 l-60 -129
-55 127 c-35 81 -61 128 -71 130 -10 2 -17 0 -16 -5z"/>
<path d="M4423 290 c-12 -5 -29 -21 -39 -35 -26 -40 -7 -67 78 -112 56 -29 74
-44 76 -62 3 -15 -3 -30 -14 -38 -22 -16 -108 -17 -136 -2 -17 9 -19 8 -16 -7
7 -39 143 -37 183 2 20 21 19 67 -2 86 -10 9 -46 30 -80 47 -55 27 -63 35 -63
60 0 38 42 56 106 47 34 -4 45 -3 42 7 -5 15 -103 20 -135 7z"/>
<path d="M4800 193 c0 -132 15 -165 82 -183 66 -18 138 4 160 50 24 46 26 240
4 240 -11 0 -15 -24 -18 -116 -3 -108 -5 -117 -27 -135 -23 -19 -91 -26 -126
-13 -32 13 -45 59 -45 164 0 82 -3 100 -15 100 -12 0 -15 -19 -15 -107z"/>
<path d="M4088 240 c-14 -44 -15 -45 -63 -48 l-48 -3 37 -25 c38 -26 42 -37
26 -80 -6 -15 -9 -28 -7 -30 2 -2 19 7 39 21 l35 24 34 -24 c18 -14 35 -23 37
-20 2 2 -1 18 -7 36 -15 45 -15 45 26 74 l38 25 -48 0 c-43 0 -48 3 -57 28
-26 69 -26 70 -42 22z"/>
</g>
</svg>
