<?xml version="1.0" standalone="no"?>
<!DOCTYPE svg PUBLIC "-//W3C//DTD SVG 20010904//EN"
 "http://www.w3.org/TR/2001/REC-SVG-20010904/DTD/svg10.dtd">
<svg version="1.0" xmlns="http://www.w3.org/2000/svg"
 width="693.000000pt" height="891.000000pt" viewBox="0 0 693.000000 891.000000"
 preserveAspectRatio="xMidYMid meet">

<g transform="translate(0.000000,891.000000) scale(0.100000,-0.100000)"
fill="#000000" stroke="none">
<path d="M4750 7679 c-1097 -37 -2042 -69 -2100 -72 -58 -2 847 -1 2010 1
1163 3 2116 5 2116 6 1 0 4 31 8 69 6 65 6 67 -16 66 -13 -1 -921 -32 -2018
-70z"/>
<path d="M1887 6000 c-15 -228 -46 -676 -67 -995 -78 -1146 -111 -1629 -195
-2870 -46 -693 -87 -1291 -91 -1330 -3 -38 -3 -67 2 -63 4 5 17 160 30 345 12
186 27 408 33 493 16 231 58 845 86 1270 14 206 30 438 35 515 6 77 26 374 45
660 74 1097 106 1565 115 1695 34 491 41 603 38 646 -2 27 -16 -138 -31 -366z"/>
<path d="M2661 5644 l-1 -731 38 -6 c20 -3 65 -9 99 -13 57 -6 61 -5 57 12 -2
11 -42 323 -89 694 -47 371 -89 698 -94 725 -5 30 -9 -235 -10 -681z"/>
<path d="M2660 2535 l0 -1797 343 7 c188 3 385 11 437 16 686 73 1242 583
1381 1266 30 149 39 550 15 728 -52 398 -212 734 -484 1016 -234 243 -496 401
-810 489 -174 49 -281 61 -594 67 l-288 6 0 -1798z"/>
<path d="M2235 611 c-131 -36 -205 -130 -205 -261 0 -122 71 -219 186 -255
163 -51 340 74 343 243 2 108 -52 203 -141 246 -59 29 -135 40 -183 27z"/>
</g>
</svg>
