<?xml version="1.0" standalone="no"?>
<!DOCTYPE svg PUBLIC "-//W3C//DTD SVG 20010904//EN"
 "http://www.w3.org/TR/2001/REC-SVG-20010904/DTD/svg10.dtd">
<svg version="1.0" xmlns="http://www.w3.org/2000/svg"
 width="367.000000pt" height="72.000000pt" viewBox="0 0 367.000000 72.000000"
 preserveAspectRatio="xMidYMid meet">

<g transform="translate(0.000000,72.000000) scale(0.100000,-0.100000)"
fill="#000000" stroke="none">
<path d="M575 666 l-50 -43 18 -37 c9 -20 17 -42 17 -49 0 -7 -43 -92 -95
-191 l-95 -178 17 -29 c10 -16 20 -29 23 -29 3 0 43 75 90 166 47 91 90 170
96 175 10 8 82 -129 156 -299 l23 -52 56 49 56 50 -126 255 c-69 140 -128 255
-131 255 -3 1 -28 -19 -55 -43z"/>
<path d="M1636 602 l-107 -107 3 98 3 97 -62 0 c-35 0 -64 -3 -64 -7 -7 -42
-3 -541 4 -550 6 -8 33 -13 69 -13 l59 0 -3 157 c-2 111 0 157 9 160 6 2 49
-68 98 -162 l87 -166 48 43 c26 24 48 46 49 50 1 3 -37 75 -84 159 -47 84 -85
159 -85 165 0 7 29 39 65 71 36 32 65 63 65 68 0 6 -11 18 -24 27 -22 16 -24
15 -130 -90z"/>
<path d="M2387 664 l-48 -46 22 -34 c25 -42 29 -31 -83 -262 l-79 -163 19 -31
20 -31 41 74 c22 41 62 122 88 181 27 59 51 108 54 108 6 0 86 -186 120 -283
13 -37 28 -67 32 -67 5 0 31 21 59 48 l50 47 -67 155 c-78 181 -162 350 -173
350 -4 0 -29 -21 -55 -46z"/>
<path d="M2927 666 l-49 -44 22 -41 21 -42 -88 -166 c-48 -92 -92 -175 -97
-185 -6 -13 -3 -29 9 -52 l19 -35 89 172 c49 95 93 176 98 181 7 8 144 -260
172 -338 7 -16 13 -13 60 30 28 26 54 49 56 50 5 4 -249 508 -257 511 -4 1
-29 -17 -55 -41z"/>
<path d="M14 679 c-3 -6 -7 -130 -8 -276 -1 -203 2 -267 12 -275 20 -17 231
-4 270 16 90 46 106 207 30 285 -31 32 -108 61 -160 61 -27 0 -28 2 -28 48 0
90 2 92 90 92 73 0 77 1 88 25 7 14 12 28 12 30 0 11 -299 5 -306 -6z m190
-264 c68 -63 45 -215 -37 -241 -31 -10 -37 12 -37 147 l0 126 25 -5 c13 -2 36
-14 49 -27z"/>
<path d="M953 678 c-11 -19 -12 -530 0 -545 6 -8 33 -13 69 -13 l59 0 -3 102
-3 103 59 7 c113 15 169 75 170 183 1 70 -22 118 -74 152 -30 21 -45 23 -151
23 -83 0 -120 -4 -126 -12z m202 -72 c59 -83 27 -211 -57 -231 l-28 -7 0 134
c0 74 3 137 6 141 10 10 64 -14 79 -37z"/>
<path d="M1946 671 c-9 -10 -32 -27 -51 -37 -19 -10 -35 -24 -35 -30 0 -7 27
-69 59 -138 33 -69 76 -167 96 -217 l36 -90 -19 -59 -20 -59 24 -15 c13 -9 26
-16 28 -16 3 0 15 33 26 73 12 39 58 182 102 316 l80 243 -26 26 c-19 20 -26
22 -30 11 -3 -8 -24 -75 -47 -149 -23 -74 -45 -138 -49 -143 -6 -7 -94 167
-134 266 -8 20 -17 37 -19 37 -2 0 -11 -8 -21 -19z"/>
<path d="M3314 679 c-3 -6 -7 -130 -8 -276 -1 -203 2 -267 12 -275 20 -17 231
-4 270 16 90 46 106 207 30 285 -31 32 -108 61 -160 61 -27 0 -28 2 -28 48 0
90 2 92 90 92 73 0 77 1 88 25 7 14 12 28 12 30 0 11 -299 5 -306 -6z m190
-264 c68 -63 45 -215 -37 -241 -31 -10 -37 12 -37 147 l0 126 25 -5 c13 -2 36
-14 49 -27z"/>
<path d="M550 261 c-25 -22 -43 -41 -40 -43 3 -2 24 -18 46 -36 l42 -32 38 31
c22 17 41 33 43 35 5 5 -70 84 -79 84 -3 0 -25 -18 -50 -39z"/>
<path d="M2907 262 c-20 -21 -37 -40 -37 -43 0 -3 18 -20 40 -38 l41 -33 45
37 45 37 -43 38 c-24 22 -45 39 -48 40 -3 0 -23 -17 -43 -38z"/>
</g>
</svg>
